<svg width="200" height="200" viewBox="0 0 200 200" fill="none" xmlns="http://www.w3.org/2000/svg">
  <defs>
    <linearGradient id="bg" x1="10" y1="10" x2="190" y2="190" gradientUnits="userSpaceOnUse">
      <stop offset="0" stop-color="#FFFFFA"/>
      <stop offset="1" stop-color="#EBF5E4"/>
    </linearGradient>
    <linearGradient id="paint" x1="18" y1="20" x2="182" y2="180" gradientUnits="userSpaceOnUse">
      <stop offset="0" stop-color="#1F4F2F"/>
      <stop offset="0.30" stop-color="#2E9470"/>
      <stop offset="0.54" stop-color="#6FAE4A"/>
      <stop offset="0.76" stop-color="#DDECC4"/>
      <stop offset="1" stop-color="#3F8A4C"/>
    </linearGradient>
    <linearGradient id="vein" x1="42" y1="28" x2="158" y2="172" gradientUnits="userSpaceOnUse">
      <stop offset="0" stop-color="#FFFFFA" stop-opacity="0.12"/>
      <stop offset="0.46" stop-color="#FFFFFA" stop-opacity="0.64"/>
      <stop offset="1" stop-color="#5ED397" stop-opacity="0.18"/>
    </linearGradient>
    <clipPath id="bodyClip">
      <path d="M98 20V70C98 78 86 86 86 100C86 114 98 122 98 130V180C30 180 12 145 12 100C12 55 30 20 98 20Z"/>
      <path d="M102 20V70C102 78 114 86 114 100C114 114 102 122 102 130V180C170 180 188 145 188 100C188 55 170 20 102 20Z"/>
    </clipPath>
    <filter id="shadow" x="-20%" y="-20%" width="140%" height="140%">
      <feDropShadow dx="0" dy="7" stdDeviation="8" flood-color="#12230F" flood-opacity="0.14"/>
    </filter>
  </defs>
  <rect x="10" y="10" width="180" height="180" rx="40" fill="url(#bg)"/>
  <rect x="10.5" y="10.5" width="179" height="179" rx="39.5" stroke="#12230F" stroke-opacity="0.10"/>
  <g filter="url(#shadow)">
    <path d="M98 20V70C98 78 86 86 86 100C86 114 98 122 98 130V180C30 180 12 145 12 100C12 55 30 20 98 20Z" fill="url(#paint)"/>
    <path d="M102 20V70C102 78 114 86 114 100C114 114 102 122 102 130V180C170 180 188 145 188 100C188 55 170 20 102 20Z" fill="url(#paint)"/>
  </g>
  <g clip-path="url(#bodyClip)" opacity="0.72">
    <path d="M55 28C47 62 49 122 58 180" stroke="url(#vein)" stroke-width="3.2" stroke-linecap="round"/>
    <path d="M80 26C74 64 76 128 84 182" stroke="url(#vein)" stroke-width="2.4" stroke-linecap="round" opacity="0.60"/>
    <path d="M121 26C128 66 126 126 116 182" stroke="url(#vein)" stroke-width="2.4" stroke-linecap="round" opacity="0.60"/>
    <path d="M146 28C154 66 152 124 141 180" stroke="url(#vein)" stroke-width="3.2" stroke-linecap="round"/>
    <path d="M28 66H88M31 102H86M28 138H92M112 66H172M114 102H169M108 138H172" stroke="#051109" stroke-opacity="0.14" stroke-width="2"/>
    <path d="M44 88C61 80 74 72 86 56M156 88C139 80 126 72 114 56M44 122C62 129 75 138 88 154M156 122C138 129 125 138 112 154" stroke="#FFFFFA" stroke-opacity="0.24" stroke-width="2" stroke-linecap="round"/>
  </g>
  <rect x="99.25" y="28" width="1.5" height="142" fill="url(#vein)" opacity="0.58"/>
  <path d="M42 134C73 146 127 146 158 134" stroke="#2E9470" stroke-opacity="0.20"/>
</svg>
