<svg width="200" height="200" viewBox="0 0 200 200" fill="none" xmlns="http://www.w3.org/2000/svg">
  <defs>
    <linearGradient id="bg" x1="10" y1="10" x2="190" y2="190" gradientUnits="userSpaceOnUse">
      <stop offset="0" stop-color="#FFFFFF"/>
      <stop offset="0.56" stop-color="#F6F7F3"/>
      <stop offset="1" stop-color="#E5E8E5"/>
    </linearGradient>
    <linearGradient id="paint" x1="18" y1="24" x2="182" y2="176" gradientUnits="userSpaceOnUse">
      <stop offset="0" stop-color="#151A1A"/>
      <stop offset="0.30" stop-color="#2A3034"/>
      <stop offset="0.50" stop-color="#047E70"/>
      <stop offset="0.68" stop-color="#6AAEFF"/>
      <stop offset="0.86" stop-color="#F2C94C"/>
      <stop offset="1" stop-color="#0F1213"/>
    </linearGradient>
    <linearGradient id="line" x1="36" y1="36" x2="164" y2="164" gradientUnits="userSpaceOnUse">
      <stop offset="0" stop-color="#FFFFFF" stop-opacity="0.16"/>
      <stop offset="0.46" stop-color="#FFFFFF" stop-opacity="0.74"/>
      <stop offset="1" stop-color="#B28700" stop-opacity="0.38"/>
    </linearGradient>
    <clipPath id="bodyClip">
      <path d="M96 24V68C96 78 84 85 84 100C84 115 96 122 96 132V176C38 174 18 143 18 100C18 57 38 26 96 24Z"/>
      <path d="M104 24V68C104 78 116 85 116 100C116 115 104 122 104 132V176C162 174 182 143 182 100C182 57 162 26 104 24Z"/>
    </clipPath>
    <filter id="shadow" x="-20%" y="-20%" width="140%" height="140%">
      <feDropShadow dx="0" dy="7" stdDeviation="8" flood-color="#151A1A" flood-opacity="0.16"/>
    </filter>
  </defs>
  <rect x="10" y="10" width="180" height="180" rx="40" fill="url(#bg)"/>
  <path d="M34 48H76M122 48H166M34 152H82M118 152H166" stroke="#151A1A" stroke-opacity="0.09" stroke-linecap="round"/>
  <path d="M26 82L78 30M122 170L174 118" stroke="#047E70" stroke-opacity="0.12" stroke-linecap="round"/>
  <path d="M142 38L166 62M34 136L58 160" stroke="#B28700" stroke-opacity="0.20" stroke-width="3" stroke-linecap="round"/>
  <rect x="10.5" y="10.5" width="179" height="179" rx="39.5" stroke="#151A1A" stroke-opacity="0.10"/>
  <g filter="url(#shadow)">
    <path d="M96 24V68C96 78 84 85 84 100C84 115 96 122 96 132V176C38 174 18 143 18 100C18 57 38 26 96 24Z" fill="url(#paint)"/>
    <path d="M104 24V68C104 78 116 85 116 100C116 115 104 122 104 132V176C162 174 182 143 182 100C182 57 162 26 104 24Z" fill="url(#paint)"/>
  </g>
  <g clip-path="url(#bodyClip)">
    <path d="M28 82L76 34M38 108L112 34M54 134L148 40M78 154L170 62M112 170L178 104" stroke="#07090A" stroke-opacity="0.22" stroke-width="8" stroke-linecap="round"/>
    <path d="M44 62H86M114 62H156M42 142H88M112 142H158" stroke="#FFFFFF" stroke-opacity="0.42" stroke-width="2.2" stroke-linecap="round"/>
    <path d="M48 104C66 86 84 86 100 100C116 114 134 110 152 90" stroke="url(#line)" stroke-width="5" stroke-linecap="round" opacity="0.66"/>
    <path d="M122 70L134 58M140 78L154 74M120 88L134 94" stroke="#B28700" stroke-opacity="0.74" stroke-width="2.4" stroke-linecap="round"/>
    <circle cx="66" cy="76" r="3.6" fill="#FFFFFF" fill-opacity="0.22" stroke="#FFFFFF" stroke-opacity="0.72"/>
    <circle cx="134" cy="76" r="3.6" fill="#FFFFFF" fill-opacity="0.22" stroke="#FFFFFF" stroke-opacity="0.72"/>
    <circle cx="66" cy="124" r="3.6" fill="#FFFFFF" fill-opacity="0.22" stroke="#B28700" stroke-opacity="0.68"/>
    <circle cx="134" cy="124" r="3.6" fill="#FFFFFF" fill-opacity="0.22" stroke="#B28700" stroke-opacity="0.68"/>
  </g>
  <rect x="99.2" y="31" width="1.6" height="138" fill="#FFFFFF" opacity="0.56"/>
  <path d="M62 138C86 150 120 150 144 138" stroke="#B28700" stroke-opacity="0.62" stroke-width="4" stroke-linecap="round"/>
  <path d="M128 130L142 140L128 150M144 130L158 140L144 150" stroke="#B28700" stroke-width="3.3" stroke-linecap="round" stroke-linejoin="round" opacity="0.74"/>
</svg>
