<svg width="200" height="200" viewBox="0 0 200 200" fill="none" xmlns="http://www.w3.org/2000/svg">
  <defs>
    <linearGradient id="bg" x1="10" y1="10" x2="190" y2="190" gradientUnits="userSpaceOnUse">
      <stop offset="0" stop-color="#082832"/>
      <stop offset="0.54" stop-color="#031014"/>
      <stop offset="1" stop-color="#0B323B"/>
    </linearGradient>
    <linearGradient id="paint" x1="18" y1="28" x2="182" y2="172" gradientUnits="userSpaceOnUse">
      <stop offset="0" stop-color="#0B5A63"/>
      <stop offset="0.28" stop-color="#8FE7DF"/>
      <stop offset="0.48" stop-color="#E8FFF9"/>
      <stop offset="0.68" stop-color="#FFB199"/>
      <stop offset="0.88" stop-color="#FF6F61"/>
      <stop offset="1" stop-color="#0A3F47"/>
    </linearGradient>
    <linearGradient id="sweep" x1="44" y1="18" x2="138" y2="178" gradientUnits="userSpaceOnUse">
      <stop offset="0.18" stop-color="#FFFFFF" stop-opacity="0"/>
      <stop offset="0.43" stop-color="#E8FFF9" stop-opacity="0.72"/>
      <stop offset="0.52" stop-color="#8FE7DF" stop-opacity="0.20"/>
      <stop offset="0.80" stop-color="#FFFFFF" stop-opacity="0"/>
    </linearGradient>
    <radialGradient id="coralGlow" cx="0" cy="0" r="1" gradientUnits="userSpaceOnUse" gradientTransform="translate(132 132) rotate(130) scale(72 52)">
      <stop stop-color="#FF6F61" stop-opacity="0.38"/>
      <stop offset="1" stop-color="#FF6F61" stop-opacity="0"/>
    </radialGradient>
    <filter id="softGlow" x="-28%" y="-28%" width="156%" height="156%">
      <feGaussianBlur stdDeviation="6" result="blur"/>
      <feColorMatrix in="blur" type="matrix" values="0 0 0 0 0.56 0 0 0 0 0.91 0 0 0 0 0.87 0 0 0 0.36 0"/>
      <feBlend in="SourceGraphic"/>
    </filter>
  </defs>
  <rect x="10" y="10" width="180" height="180" rx="40" fill="url(#bg)"/>
  <path d="M24 56C72 20 128 20 176 56" stroke="#E8FFF9" stroke-opacity="0.11"/>
  <path d="M24 144C72 180 128 180 176 144" stroke="#8FE7DF" stroke-opacity="0.18"/>
  <rect x="10.5" y="10.5" width="179" height="179" rx="39.5" stroke="#E8FFF9" stroke-opacity="0.12"/>
  <g filter="url(#softGlow)">
    <path d="M96 24V68C96 78 84 85 84 100C84 115 96 122 96 132V176C38 174 18 143 18 100C18 57 38 26 96 24Z" fill="url(#paint)"/>
    <path d="M104 24V68C104 78 116 85 116 100C116 115 104 122 104 132V176C162 174 182 143 182 100C182 57 162 26 104 24Z" fill="url(#paint)"/>
  </g>
  <path d="M44 58L138 134" stroke="url(#sweep)" stroke-width="7" stroke-linecap="round" opacity="0.36"/>
  <rect x="99.2" y="31" width="1.6" height="138" fill="url(#sweep)" opacity="0.74"/>
  <path d="M70 136C92 146 122 146 144 136" stroke="#FF6F61" stroke-opacity="0.42" stroke-width="4" stroke-linecap="round"/>
  <circle cx="135" cy="128" r="34" fill="url(#coralGlow)"/>
</svg>
