<svg width="200" height="200" viewBox="0 0 200 200" fill="none" xmlns="http://www.w3.org/2000/svg">
  <defs>
    <linearGradient id="bg" x1="10" y1="10" x2="190" y2="190" gradientUnits="userSpaceOnUse">
      <stop offset="0" stop-color="#FFFFFF"/>
      <stop offset="0.58" stop-color="#F8FFFC"/>
      <stop offset="1" stop-color="#DFF3EF"/>
    </linearGradient>
    <linearGradient id="paint" x1="18" y1="28" x2="182" y2="172" gradientUnits="userSpaceOnUse">
      <stop offset="0" stop-color="#0B5A63"/>
      <stop offset="0.28" stop-color="#0E8D93"/>
      <stop offset="0.48" stop-color="#8FE7DF"/>
      <stop offset="0.64" stop-color="#FFF3E8"/>
      <stop offset="0.82" stop-color="#FF6F61"/>
      <stop offset="1" stop-color="#0A3F47"/>
    </linearGradient>
    <linearGradient id="sweep" x1="44" y1="18" x2="138" y2="178" gradientUnits="userSpaceOnUse">
      <stop offset="0.18" stop-color="#FFFFFF" stop-opacity="0"/>
      <stop offset="0.44" stop-color="#FFFFFF" stop-opacity="0.78"/>
      <stop offset="0.53" stop-color="#EAF8F5" stop-opacity="0.18"/>
      <stop offset="0.80" stop-color="#FFFFFF" stop-opacity="0"/>
    </linearGradient>
    <filter id="shadow" x="-20%" y="-20%" width="140%" height="140%">
      <feDropShadow dx="0" dy="7" stdDeviation="8" flood-color="#102A2F" flood-opacity="0.14"/>
    </filter>
  </defs>
  <rect x="10" y="10" width="180" height="180" rx="40" fill="url(#bg)"/>
  <rect x="10.5" y="10.5" width="179" height="179" rx="39.5" stroke="#102A2F" stroke-opacity="0.10"/>
  <g filter="url(#shadow)">
    <path d="M96 24V68C96 78 84 85 84 100C84 115 96 122 96 132V176C38 174 18 143 18 100C18 57 38 26 96 24Z" fill="url(#paint)"/>
    <path d="M104 24V68C104 78 116 85 116 100C116 115 104 122 104 132V176C162 174 182 143 182 100C182 57 162 26 104 24Z" fill="url(#paint)"/>
  </g>
  <rect x="99.2" y="31" width="1.6" height="138" fill="url(#sweep)" opacity="0.70"/>
  <path d="M44 58L138 134" stroke="url(#sweep)" stroke-width="7" stroke-linecap="round" opacity="0.32"/>
  <path d="M40 100H160" stroke="#FFFFFF" stroke-opacity="0.18"/>
  <path d="M70 136C92 146 122 146 144 136" stroke="#FF6F61" stroke-opacity="0.40" stroke-width="4" stroke-linecap="round"/>
</svg>
