<svg width="200" height="200" viewBox="0 0 200 200" fill="none" xmlns="http://www.w3.org/2000/svg">
  <defs>
    <linearGradient id="bgGrad" x1="18" y1="18" x2="182" y2="182" gradientUnits="userSpaceOnUse">
      <stop offset="0" stop-color="#FFFFFF"/>
      <stop offset="0.56" stop-color="#FFFCFD"/>
      <stop offset="1" stop-color="#EEE8F2"/>
    </linearGradient>
    <linearGradient id="ddGrad" x1="30" y1="34" x2="170" y2="166" gradientUnits="userSpaceOnUse">
      <stop offset="0" stop-color="#6F55D8"/>
      <stop offset="0.52" stop-color="#B98AD8"/>
      <stop offset="1" stop-color="#C36F5C"/>
    </linearGradient>
    <linearGradient id="dustGrad" x1="58" y1="76" x2="148" y2="128" gradientUnits="userSpaceOnUse">
      <stop offset="0" stop-color="#FFFFFF" stop-opacity="0.74"/>
      <stop offset="0.48" stop-color="#6F55D8" stop-opacity="0.48"/>
      <stop offset="1" stop-color="#C36F5C" stop-opacity="0.42"/>
    </linearGradient>
    <radialGradient id="glow" cx="50%" cy="50%" r="50%">
      <stop offset="0" stop-color="#C36F5C" stop-opacity="0.20"/>
      <stop offset="0.58" stop-color="#6F55D8" stop-opacity="0.06"/>
      <stop offset="1" stop-color="#6F55D8" stop-opacity="0"/>
    </radialGradient>
    <filter id="shadow" x="-20%" y="-20%" width="140%" height="140%">
      <feDropShadow dx="0" dy="7" stdDeviation="8" flood-color="#1A132D" flood-opacity="0.14"/>
    </filter>
  </defs>

  <rect x="16" y="16" width="168" height="168" rx="38" fill="url(#bgGrad)"/>
  <circle cx="100" cy="100" r="78" fill="url(#glow)"/>
  <rect x="16.5" y="16.5" width="167" height="167" rx="37.5" stroke="#1A132D" stroke-opacity="0.10"/>

  <g filter="url(#shadow)">
    <path d="M96 34V76C96 84 86 91 86 100C86 109 96 116 96 124V166C48 166 30 138 30 100C30 62 48 34 96 34Z" fill="url(#ddGrad)"/>
    <path d="M104 34V76C104 84 114 91 114 100C114 109 104 116 104 124V166C152 166 170 138 170 100C170 62 152 34 104 34Z" fill="url(#ddGrad)"/>
  </g>

  <path d="M62 120C72 105 82 98 94 93" stroke="url(#dustGrad)" stroke-width="2.6" stroke-linecap="round"/>
  <path d="M116 82C130 88 140 99 148 116" stroke="url(#dustGrad)" stroke-width="2.6" stroke-linecap="round"/>
  <circle cx="69" cy="82" r="2.2" fill="#FFFFFF" fill-opacity="0.70"/>
  <circle cx="82" cy="132" r="1.8" fill="#C36F5C" fill-opacity="0.66"/>
  <circle cx="128" cy="72" r="1.8" fill="#6F55D8" fill-opacity="0.68"/>
  <circle cx="145" cy="126" r="2.1" fill="#C36F5C" fill-opacity="0.62"/>
  <circle cx="118" cy="140" r="1.3" fill="#FFFFFF" fill-opacity="0.50"/>
</svg>
