<svg width="200" height="200" viewBox="0 0 200 200" fill="none" xmlns="http://www.w3.org/2000/svg">
  <defs>
    <linearGradient id="bgGrad" x1="18" y1="18" x2="182" y2="182" gradientUnits="userSpaceOnUse">
      <stop offset="0" stop-color="#FFFFFF"/>
      <stop offset="0.56" stop-color="#FEFBF8"/>
      <stop offset="1" stop-color="#EDE3DC"/>
    </linearGradient>
    <linearGradient id="ddGrad" x1="30" y1="34" x2="170" y2="166" gradientUnits="userSpaceOnUse">
      <stop offset="0" stop-color="#3A1515"/>
      <stop offset="0.54" stop-color="#963E31"/>
      <stop offset="1" stop-color="#B46A45"/>
    </linearGradient>
    <radialGradient id="eclipseGlow" cx="50%" cy="50%" r="50%">
      <stop offset="0" stop-color="#B46A45" stop-opacity="0.22"/>
      <stop offset="0.56" stop-color="#963E31" stop-opacity="0.08"/>
      <stop offset="1" stop-color="#963E31" stop-opacity="0"/>
    </radialGradient>
    <filter id="shadow" x="-20%" y="-20%" width="140%" height="140%">
      <feDropShadow dx="0" dy="7" stdDeviation="8" flood-color="#130807" flood-opacity="0.14"/>
    </filter>
  </defs>

  <rect x="16" y="16" width="168" height="168" rx="38" fill="url(#bgGrad)"/>
  <circle cx="126" cy="72" r="80" fill="url(#eclipseGlow)"/>
  <rect x="16.5" y="16.5" width="167" height="167" rx="37.5" stroke="#130807" stroke-opacity="0.10"/>

  <g filter="url(#shadow)">
    <path d="M96 34V76C96 84 86 91 86 100C86 109 96 116 96 124V166C48 166 30 138 30 100C30 62 48 34 96 34Z" fill="url(#ddGrad)"/>
    <path d="M104 34V76C104 84 114 91 114 100C114 109 104 116 104 124V166C152 166 170 138 170 100C170 62 152 34 104 34Z" fill="url(#ddGrad)"/>
  </g>

</svg>
