<svg width="200" height="200" viewBox="0 0 200 200" fill="none" xmlns="http://www.w3.org/2000/svg">
  <defs>
    <linearGradient id="bg" x1="10" y1="10" x2="190" y2="190" gradientUnits="userSpaceOnUse">
      <stop offset="0" stop-color="#25221E"/>
      <stop offset="0.55" stop-color="#0D0D0C"/>
      <stop offset="1" stop-color="#151412"/>
    </linearGradient>
    <linearGradient id="inkPaper" x1="18" y1="20" x2="182" y2="180" gradientUnits="userSpaceOnUse">
      <stop offset="0" stop-color="#F7EBDD"/>
      <stop offset="0.34" stop-color="#E8E0CF"/>
      <stop offset="0.58" stop-color="#B94135"/>
      <stop offset="0.78" stop-color="#426A7A"/>
      <stop offset="1" stop-color="#3A352E"/>
    </linearGradient>
    <linearGradient id="brush" x1="42" y1="18" x2="150" y2="180" gradientUnits="userSpaceOnUse">
      <stop offset="0" stop-color="#FFFFFB" stop-opacity="0"/>
      <stop offset="0.44" stop-color="#FFFFFB" stop-opacity="0.50"/>
      <stop offset="0.68" stop-color="#F7EBDD" stop-opacity="0.14"/>
      <stop offset="1" stop-color="#FFFFFB" stop-opacity="0"/>
    </linearGradient>
    <clipPath id="bodyClip">
      <path d="M98 20V70C98 78 86 86 86 100C86 114 98 122 98 130V180C30 180 12 145 12 100C12 55 30 20 98 20Z"/>
      <path d="M102 20V70C102 78 114 86 114 100C114 114 102 122 102 130V180C170 180 188 145 188 100C188 55 170 20 102 20Z"/>
    </clipPath>
    <filter id="softGlow" x="-30%" y="-30%" width="160%" height="160%">
      <feGaussianBlur stdDeviation="6" result="blur"/>
      <feColorMatrix in="blur" type="matrix" values="1 0 0 0 0.85 0 1 0 0 0.35 0 0 1 0 0.27 0 0 0 0.34 0"/>
      <feBlend in="SourceGraphic"/>
    </filter>
  </defs>
  <rect x="10" y="10" width="180" height="180" rx="40" fill="url(#bg)"/>
  <path d="M24 58C70 22 130 22 176 58" stroke="#F7EBDD" stroke-opacity="0.10"/>
  <path d="M26 142C74 179 126 179 174 142" stroke="#426A7A" stroke-opacity="0.18"/>
  <rect x="10.5" y="10.5" width="179" height="179" rx="39.5" stroke="#F7EBDD" stroke-opacity="0.12"/>
  <g filter="url(#softGlow)">
    <path d="M98 20V70C98 78 86 86 86 100C86 114 98 122 98 130V180C30 180 12 145 12 100C12 55 30 20 98 20Z" fill="url(#inkPaper)"/>
    <path d="M102 20V70C102 78 114 86 114 100C114 114 102 122 102 130V180C170 180 188 145 188 100C188 55 170 20 102 20Z" fill="url(#inkPaper)"/>
  </g>
  <g clip-path="url(#bodyClip)">
    <path d="M26 62H174M22 96H178M28 132H172" stroke="#0D0D0C" stroke-opacity="0.18" stroke-width="2"/>
    <path d="M48 52C78 65 122 65 152 52M46 148C78 136 122 136 154 148" stroke="#FFFFFB" stroke-opacity="0.18" stroke-width="2" stroke-linecap="round"/>
    <path d="M46 54L144 146" stroke="url(#brush)" stroke-width="7" stroke-linecap="round" opacity="0.44"/>
    <path d="M128 126H158V156H128Z" fill="#B94135" fill-opacity="0.72"/>
    <path d="M134 132H152M134 141H152M134 150H146" stroke="#FFF8E8" stroke-opacity="0.54" stroke-width="2" stroke-linecap="round"/>
  </g>
  <rect x="99.25" y="28" width="1.5" height="142" fill="url(#brush)" opacity="0.52"/>
</svg>
