<svg width="200" height="200" viewBox="0 0 200 200" fill="none" xmlns="http://www.w3.org/2000/svg">
  <defs>
    <linearGradient id="kilnBg" x1="12" y1="10" x2="190" y2="190" gradientUnits="userSpaceOnUse">
      <stop stop-color="#142824"/>
      <stop offset="0.56" stop-color="#081311"/>
      <stop offset="1" stop-color="#17352F"/>
    </linearGradient>
    <linearGradient id="celadonPaint" x1="16" y1="20" x2="184" y2="180" gradientUnits="userSpaceOnUse">
      <stop stop-color="#3F776C"/>
      <stop offset="0.34" stop-color="#86B9A9"/>
      <stop offset="0.62" stop-color="#DCE8DF"/>
      <stop offset="0.82" stop-color="#86B9A9"/>
      <stop offset="1" stop-color="#C2A66C"/>
    </linearGradient>
    <radialGradient id="kilnGlow" cx="0" cy="0" r="1" gradientUnits="userSpaceOnUse" gradientTransform="translate(52 44) rotate(45) scale(102)">
      <stop stop-color="#86B9A9" stop-opacity="0.28"/>
      <stop offset="1" stop-color="#86B9A9" stop-opacity="0"/>
    </radialGradient>
    <linearGradient id="glazeSweep" x1="44" y1="18" x2="154" y2="180" gradientUnits="userSpaceOnUse">
      <stop offset="0.18" stop-color="#FFFFFF" stop-opacity="0"/>
      <stop offset="0.47" stop-color="#F4F7F2" stop-opacity="0.60"/>
      <stop offset="0.58" stop-color="#86B9A9" stop-opacity="0.15"/>
      <stop offset="0.82" stop-color="#FFFFFF" stop-opacity="0"/>
    </linearGradient>
    <filter id="kilnGlowFilter" x="-28%" y="-28%" width="156%" height="164%">
      <feGaussianBlur stdDeviation="5" result="blur"/>
      <feColorMatrix in="blur" type="matrix" values="0.46 0 0 0 0.18 0 0.72 0 0 0.40 0 0 0.66 0 0.54 0 0 0 0.42 0"/>
      <feBlend in="SourceGraphic"/>
    </filter>
    <clipPath id="markClip">
      <path d="M98 20V70C98 78 86 86 86 100C86 114 98 122 98 130V180C30 180 12 145 12 100C12 55 30 20 98 20Z"/>
      <path d="M102 20V70C102 78 114 86 114 100C114 114 102 122 102 130V180C170 180 188 145 188 100C188 55 170 20 102 20Z"/>
    </clipPath>
  </defs>
  <rect x="10" y="10" width="180" height="180" rx="40" fill="url(#kilnBg)"/>
  <circle cx="50" cy="44" r="82" fill="url(#kilnGlow)"/>
  <circle cx="158" cy="154" r="64" fill="url(#kilnGlow)" opacity="0.52"/>
  <rect x="10.5" y="10.5" width="179" height="179" rx="39.5" stroke="#DCE8DF" stroke-opacity="0.12"/>
  <g filter="url(#kilnGlowFilter)">
    <path d="M98 20V70C98 78 86 86 86 100C86 114 98 122 98 130V180C30 180 12 145 12 100C12 55 30 20 98 20Z" fill="url(#celadonPaint)"/>
    <path d="M102 20V70C102 78 114 86 114 100C114 114 102 122 102 130V180C170 180 188 145 188 100C188 55 170 20 102 20Z" fill="url(#celadonPaint)"/>
  </g>
  <g clip-path="url(#markClip)" stroke="#081311" stroke-opacity="0.46" stroke-width="1.25" stroke-linecap="round">
    <path d="M24 62L55 79L76 68L98 88"/>
    <path d="M55 79L48 109L67 126L58 158"/>
    <path d="M67 126L88 114L98 122"/>
    <path d="M176 54L145 73L126 64L102 84"/>
    <path d="M145 73L153 103L132 122L142 156"/>
    <path d="M132 122L112 112L102 124"/>
  </g>
  <g clip-path="url(#markClip)" stroke="#E8EFE9" stroke-opacity="0.38" stroke-width="0.8" stroke-linecap="round" transform="translate(0 1)">
    <path d="M24 62L55 79L76 68L98 88"/>
    <path d="M176 54L145 73L126 64L102 84"/>
  </g>
  <rect x="99.35" y="25" width="1.3" height="150" fill="url(#glazeSweep)"/>
  <path d="M43 49C78 34 122 34 157 49" stroke="#F4F7F2" stroke-opacity="0.24" stroke-width="5" stroke-linecap="round"/>
  <path d="M61 151C86 162 114 162 139 151" stroke="#C2A66C" stroke-opacity="0.54" stroke-width="1.4" stroke-linecap="round"/>
</svg>
